<?xml version="1.0" standalone="no"?><!DOCTYPE svg PUBLIC "-//W3C//DTD SVG 1.1//EN" "http://www.w3.org/Graphics/SVG/1.1/DTD/svg11.dtd"><svg t="1579574742749" class="icon" viewBox="0 0 1024 1024" version="1.1" xmlns="http://www.w3.org/2000/svg" p-id="722" xmlns:xlink="http://www.w3.org/1999/xlink" width="200" height="200"><defs><style type="text/css"></style></defs><path d="M866.86879854 546.30903887c0 196.49517627-159.29100088 355.78437802-355.78437804 355.78437803-196.49697539 0-355.78617715-159.28920176-355.78617714-355.78437803 0-134.43455303 74.7168416-251.20238467 184.7464418-311.70616348 0.84452783-0.58280449 1.78079238-1.01900917 2.67208857-1.53346026 0.72131133-0.38763721 1.40214902-0.8355331 2.12525947-1.21687471l0.02608242 0.05036573c4.97362763-2.44184414 10.49228613-3.93573164 16.40577657-3.93573164 20.68417617 0 37.45150752 16.76913047 37.45150752 37.45150752 0 14.44870371-8.27259082 26.84320049-20.25696622 33.08856592l0.04137188 0.08454287c-88.31022539 47.36098916-148.40208369 140.49644326-148.4020837 247.71904629 0 155.18078701 125.7986083 280.97939619 280.97759708 280.97939619 155.18078701 0 280.97939619-125.7986083 280.97939619-280.97939619 0-106.81248076-59.60708614-199.68801153-147.3632877-247.21898555l0.01349122-0.02788066c-12.55188955-6.04839903-21.28137099-18.77836816-21.28137099-33.64438887 0-20.68237705 16.76733135-37.45150752 37.45150751-37.45150752 6.14013662 0 11.84766768 1.61800312 16.96160039 4.23792686l0.04137187-0.08274375c1.06757578 0.56931416 2.076692 1.23036592 3.13887218 1.80867392 0.29410049 0.18707344 0.61608252 0.32378028 0.90478652 0.52074668C792.07370967 294.92137901 866.86879854 411.7854456 866.86879854 546.30903887zM511.07902402 583.75425078c-20.68417617 0-37.45150752-16.76733135-37.45150751-37.45330664L473.62751651 153.06325947c0-20.68237705 16.76733135-37.44970927 37.45150752-37.44970927s37.45330664 16.76733135 37.45330663 37.44970928l0 393.23768466C548.53233067 566.98781855 531.76320019 583.75425078 511.07902402 583.75425078z" p-id="723"></path></svg>